PathFileType	4	(X/Y/Z)	C:\Users\chris\Documents\GitHub\baseballds\vids\pitch5_Sports2D\pitch5_Sports2D_px_person04.trc
DataRate	CameraRate	NumFrames	NumMarkers	Units	OrigDataRate	OrigDataStartFrame	OrigNumFrames
30	30	5	22	m	30	74	149
Frame#	Time	Hip			RHip			RKnee			RAnkle			RBigToe			RSmallToe			RHeel			LHip			LKnee			LAnkle			LBigToe			LSmallToe			LHeel			Neck			Head			Nose			RShoulder			RElbow			RWrist			LShoulder			LElbow			LWrist		
		X1	Y1	Z1	X2	Y2	Z2	X3	Y3	Z3	X4	Y4	Z4	X5	Y5	Z5	X6	Y6	Z6	X7	Y7	Z7	X8	Y8	Z8	X9	Y9	Z9	X10	Y10	Z10	X11	Y11	Z11	X12	Y12	Z12	X13	Y13	Z13	X14	Y14	Z14	X15	Y15	Z15	X16	Y16	Z16	X17	Y17	Z17	X18	Y18	Z18	X19	Y19	Z19	X20	Y20	Z20	X21	Y21	Z21	X22	Y22	Z22
74	2.466666666666667	1269.657197444824	464.38411637086966	0.0	1266.56981199481	465.29471243691523	0.0	1267.2905077392998	475.8524376439617	0.0	1268.0824398157904	486.15420259237584	0.0	1267.5212770491878	487.98760253653444	0.0	1265.9737657616524	487.64344024660477	0.0	1269.1693648823289	486.8972429120512	0.0	1273.51693447807	465.178598316717	0.0	1273.0767742473952	475.4898878088261	0.0	1273.9506002092899	486.8045941537186	0.0	1273.199250998668	488.39997150413075	0.0	1272.656650958434	487.6102658626089	0.0	1273.9553505734211	487.24786754030356	0.0	1270.227108456175	446.4936247686182	0.0	1269.9227113739507	437.8407451881973	0.0	1269.5130390701506	442.5607218449864	0.0	1265.2108628228393	448.3377458156354	0.0	1261.4118795512136	454.5527262525464	0.0	1257.432232605725	461.0634061400997	0.0	1275.7243759446285	448.4043947953586	0.0	1279.4860085349305	455.51561504601904	0.0	1281.9230041104872	463.0230241753736	0.0
75	2.5	1270.0419012223006	464.4588399028336	0.0	1266.9797702298567	465.29768275035656	0.0	1267.6020779359956	475.9577076846101	0.0	1268.2875862059866	486.1935790475464	0.0	1267.0520003909983	487.9956157131876	0.0	1265.3860045529661	487.58456769305275	0.0	1269.474481352872	487.02336330848533	0.0	1273.8938262046095	465.25635864902046	0.0	1273.5753494725107	475.56840935310197	0.0	1274.549373109072	486.75623085976594	0.0	1273.655226901607	488.53404796294546	0.0	1272.8679867263584	487.56741996584793	0.0	1274.6552720290479	487.2065495562812	0.0	1270.5205709628344	446.581962051509	0.0	1270.2457431782125	437.88247829986585	0.0	1269.87059335574	442.5457199078207	0.0	1265.5370902428015	448.45093461924216	0.0	1261.7815540788683	454.75150346579636	0.0	1257.5918841003158	461.2785966938491	0.0	1276.0195089523336	448.53194809147584	0.0	1279.3515550298248	455.716274715939	0.0	1281.0492327348295	463.1437644874454	0.0
76	2.533333333333333	1270.3830094725358	464.5206493314697	0.0	1267.3102509181324	465.32516175127313	0.0	1267.8847947262764	476.1117122484376	0.0	1268.4963965441902	486.26758918528583	0.0	1266.6408479955278	487.9584840804053	0.0	1265.575143489675	487.5413065606757	0.0	1269.67156107045	487.22872137882405	0.0	1274.2251050644263	465.3287085861676	0.0	1274.1282580017687	475.6987534640508	0.0	1275.3371778102216	486.7169262911332	0.0	1273.9091705555345	488.6664184141159	0.0	1273.5245350617301	487.47086832002265	0.0	1275.673921444704	487.15667938503555	0.0	1270.8006774019784	446.74373466179384	0.0	1270.5685765456722	437.8430457328028	0.0	1270.2197124521915	442.65310832933784	0.0	1265.846839473243	448.52810931579637	0.0	1262.1734719320998	454.85129812317183	0.0	1257.729476383573	461.5024371221811	0.0	1276.2087735151968	448.6308852702132	0.0	1279.0845359052248	455.7811887730352	0.0	1280.1668676603852	462.9737729914002	0.0
77	2.5666666666666664	1270.6568095381112	464.7051840060726	0.0	1267.5129815015493	465.5024390936081	0.0	1268.1018742531007	476.5092619324902	0.0	1268.6291592433283	486.48247636693793	0.0	1266.283412800695	487.97313945082726	0.0	1266.6619402632614	487.51272459674635	0.0	1269.6961752535587	487.3965736729049	0.0	1274.4844974419132	465.51486082181543	0.0	1274.649531764907	476.08151163190365	0.0	1276.1187783898217	486.8718988489956	0.0	1274.2425193906304	488.76847279903313	0.0	1274.8123163109922	487.53755110192446	0.0	1276.6978290086472	487.2144175273598	0.0	1271.0486447179887	446.97568714233824	0.0	1270.8764551260288	437.8260077312183	0.0	1270.50144024406	442.909689919767	0.0	1266.0852769819226	448.57577635934723	0.0	1262.4654142616196	454.93034998529987	0.0	1257.9082486412606	461.66901398131347	0.0	1276.4018299338993	448.7102145680718	0.0	1278.7811176710002	455.9045181693082	0.0	1279.3840943421167	462.8950778519829	0.0
78	2.6	1270.9254637907188	464.9373163204252	0.0	1267.670357575381	465.7765547183172	0.0	1268.2842950047657	476.9221582648303	0.0	1268.706575846094	486.79185436437365	0.0	1266.0392292564384	488.1104894747451	0.0	1267.519141156583	487.6765793355555	0.0	1269.6144595048397	487.5959527999049	0.0	1274.734967287372	465.7726581244281	0.0	1275.1114669427484	476.54188675947194	0.0	1276.6664588634883	487.1377787069868	0.0	1274.7301564500913	488.94199922056544	0.0	1276.4654649977654	487.7865306652858	0.0	1277.3013453375686	487.3508646016974	0.0	1271.3248978971026	447.18240187744385	0.0	1271.239622888667	437.9412962509276	0.0	1270.8084250769818	443.1785616541372	0.0	1266.299695236761	448.6937388164084	0.0	1262.7100308704144	455.08250856177824	0.0	1258.2140062819115	461.79162659097017	0.0	1276.6967508382213	448.86584775864185	0.0	1278.6938255605755	456.10988224782636	0.0	1278.9472475356856	463.0830792743881	0.0
